<svg width="65" height="170" viewBox="0 0 65 170" fill="none" xmlns="http://www.w3.org/2000/svg">
<g clip-path="url(#clip0_27_175)">
<path d="M44.0254 170L65 170L54.5127 159.51L44.0254 170Z" fill="#FF5722"/>
<path d="M44.0254 134.451L65 134.451L54.5127 123.96L44.0254 134.451Z" fill="#FF5722"/>
<path d="M44.0254 98.8862L65 98.8862L54.5127 88.3958L44.0254 98.8862Z" fill="#FF5722"/>
<path d="M44.0254 63.3369L65 63.3369L54.5127 52.8465L44.0254 63.3369Z" fill="#FF5722"/>
<path d="M44.0254 27.7875L65 27.7875L54.5127 17.2819L44.0254 27.7875Z" fill="#FF5722"/>
<path d="M2.86102e-05 152.718L20.9746 152.718L10.4873 142.227L2.86102e-05 152.718Z" fill="#FF5722"/>
<path d="M2.86102e-05 117.153L20.9746 117.153L10.4873 106.663L2.86102e-05 117.153Z" fill="#FF5722"/>
<path d="M2.86102e-05 81.6041L20.9746 81.6041L10.4873 71.1137L2.86102e-05 81.6041Z" fill="#FF5722"/>
<path d="M2.86102e-05 46.0548L20.9746 46.0548L10.4873 35.5644L2.86102e-05 46.0548Z" fill="#FF5722"/>
<path d="M2.86102e-05 10.4904L20.9746 10.4904L10.4873 -9.82653e-05L2.86102e-05 10.4904Z" fill="#FF5722"/>
</g>
<defs>
<clipPath id="clip0_27_175">
<rect width="65" height="170" fill="white" transform="translate(65 170) rotate(180)"/>
</clipPath>
</defs>
</svg>
