<svg width="64" height="74" viewBox="0 0 64 74" fill="none" xmlns="http://www.w3.org/2000/svg">
<path d="M32 36.5714C42.1 36.5714 50.2857 28.3857 50.2857 18.2857C50.2857 8.18571 42.1 0 32 0C21.9 0 13.7143 8.18571 13.7143 18.2857C13.7143 28.3857 21.9 36.5714 32 36.5714ZM45.6857 41.2286L38.8571 68.5714L34.2857 49.1429L38.8571 41.1429H25.1429L29.7143 49.1429L25.1429 68.5714L18.3143 41.2286C8.12857 41.7143 0 50.0429 0 60.3429V66.2857C0 70.0714 3.07143 73.1429 6.85714 73.1429H57.1429C60.9286 73.1429 64 70.0714 64 66.2857V60.3429C64 50.0429 55.8714 41.7143 45.6857 41.2286Z" fill="#1E3A8A"/>
</svg>
