<svg width="15" height="14" viewBox="0 0 15 14" fill="none" xmlns="http://www.w3.org/2000/svg">
<path fill-rule="evenodd" clip-rule="evenodd" d="M5.71527 7.80539C7.60061 7.80539 9.11183 6.27459 9.11183 4.36485C9.11183 2.45514 7.60061 0.924316 5.71527 0.924316C3.82996 0.924316 2.31869 2.45514 2.31869 4.36485C2.31869 6.27459 3.82996 7.80539 5.71527 7.80539ZM5.71527 9.49012C2.94621 9.49012 0.582031 9.93288 0.582031 11.7017C0.582031 13.4698 2.93182 13.9285 5.71527 13.9285C8.48366 13.9285 10.8485 13.4858 10.8485 11.7169C10.8485 9.94814 8.49872 9.49012 5.71527 9.49012ZM12.8319 5.77547H13.6554C13.9943 5.77547 14.2707 6.05572 14.2707 6.39943C14.2707 6.74308 13.9943 7.02336 13.6554 7.02336H12.8319V7.82914C12.8319 8.17286 12.5563 8.45307 12.2167 8.45307C11.8778 8.45307 11.6014 8.17286 11.6014 7.82914V7.02336H10.7794C10.4397 7.02336 10.1641 6.74308 10.1641 6.39943C10.1641 6.05572 10.4397 5.77547 10.7794 5.77547H11.6014V4.97042C11.6014 4.62672 11.8778 4.34648 12.2167 4.34648C12.5563 4.34648 12.8319 4.62672 12.8319 4.97042V5.77547Z" fill="white"/>
</svg>
