<svg width="100" height="101" viewBox="0 0 100 101" fill="none" xmlns="http://www.w3.org/2000/svg">
<path d="M97.1583 94.4272H92.7094V5.36475C92.7094 2.77588 90.3192 0.677246 87.3707 0.677246H12.6288C9.68032 0.677246 7.29014 2.77588 7.29014 5.36475V94.4272H2.84123C1.36708 94.4272 0.171875 95.4767 0.171875 96.771V100.677H99.8276V96.771C99.8276 95.4767 98.6324 94.4272 97.1583 94.4272ZM28.6449 15.521C28.6449 14.2267 29.8401 13.1772 31.3143 13.1772H40.2121C41.6863 13.1772 42.8815 14.2267 42.8815 15.521V23.3335C42.8815 24.6278 41.6863 25.6772 40.2121 25.6772H31.3143C29.8401 25.6772 28.6449 24.6278 28.6449 23.3335V15.521ZM28.6449 34.271C28.6449 32.9767 29.8401 31.9272 31.3143 31.9272H40.2121C41.6863 31.9272 42.8815 32.9767 42.8815 34.271V42.0835C42.8815 43.3778 41.6863 44.4272 40.2121 44.4272H31.3143C29.8401 44.4272 28.6449 43.3778 28.6449 42.0835V34.271ZM40.2121 63.1772H31.3143C29.8401 63.1772 28.6449 62.1278 28.6449 60.8335V53.021C28.6449 51.7267 29.8401 50.6772 31.3143 50.6772H40.2121C41.6863 50.6772 42.8815 51.7267 42.8815 53.021V60.8335C42.8815 62.1278 41.6863 63.1772 40.2121 63.1772ZM57.118 94.4272H42.8815V78.021C42.8815 76.7267 44.0767 75.6772 45.5508 75.6772H54.4487C55.9228 75.6772 57.118 76.7267 57.118 78.021V94.4272ZM71.3546 60.8335C71.3546 62.1278 70.1593 63.1772 68.6852 63.1772H59.7874C58.3132 63.1772 57.118 62.1278 57.118 60.8335V53.021C57.118 51.7267 58.3132 50.6772 59.7874 50.6772H68.6852C70.1593 50.6772 71.3546 51.7267 71.3546 53.021V60.8335ZM71.3546 42.0835C71.3546 43.3778 70.1593 44.4272 68.6852 44.4272H59.7874C58.3132 44.4272 57.118 43.3778 57.118 42.0835V34.271C57.118 32.9767 58.3132 31.9272 59.7874 31.9272H68.6852C70.1593 31.9272 71.3546 32.9767 71.3546 34.271V42.0835ZM71.3546 23.3335C71.3546 24.6278 70.1593 25.6772 68.6852 25.6772H59.7874C58.3132 25.6772 57.118 24.6278 57.118 23.3335V15.521C57.118 14.2267 58.3132 13.1772 59.7874 13.1772H68.6852C70.1593 13.1772 71.3546 14.2267 71.3546 15.521V23.3335Z" fill="#1E3A8A"/>
</svg>
