<svg width="9" height="11" viewBox="0 0 9 11" fill="none" xmlns="http://www.w3.org/2000/svg">
<path fill-rule="evenodd" clip-rule="evenodd" d="M0.189453 4.50947C0.189453 2.14823 2.16261 0.239746 4.54932 0.239746C6.9428 0.239746 8.91596 2.14823 8.91596 4.50947C8.91596 5.69931 8.48323 6.80393 7.77099 7.74023C6.98525 8.77299 6.01681 9.67284 4.92666 10.3791C4.67719 10.5424 4.45204 10.5547 4.17819 10.3791C3.0819 9.67284 2.11344 8.77299 1.33442 7.74023C0.621662 6.80393 0.189453 5.69931 0.189453 4.50947ZM3.11244 4.64242C3.11244 5.4334 3.75793 6.05555 4.54932 6.05555C5.34128 6.05555 5.99299 5.4334 5.99299 4.64242C5.99299 3.85755 5.34128 3.20513 4.54932 3.20513C3.75793 3.20513 3.11244 3.85755 3.11244 4.64242Z" fill="#FACD49"/>
</svg>
