<svg width="100" height="61" viewBox="0 0 100 61" fill="none" xmlns="http://www.w3.org/2000/svg">
<path d="M97.0773 14.7731L53.6428 1.42856C51.276 0.701384 48.7223 0.701384 46.357 1.42856L2.92098 14.7731C-0.744494 15.8989 -0.744494 20.7463 2.92098 21.8721L10.4933 24.1984C8.83184 26.2523 7.81036 28.7577 7.70915 31.5014C6.20964 32.3609 5.1539 33.9118 5.1539 35.7632C5.1539 37.4418 6.03835 38.8541 7.31208 39.7572L3.33674 57.6455C2.99105 59.2011 4.17447 60.6772 5.76741 60.6772H14.5045C16.099 60.6772 17.2824 59.2011 16.9367 57.6455L12.9613 39.7572C14.2351 38.8541 15.1195 37.4418 15.1195 35.7632C15.1195 33.9616 14.1121 32.4543 12.6811 31.5792C12.7994 29.2404 13.9953 27.1725 15.9028 25.8614L46.3555 35.2182C47.7662 35.6511 50.4725 36.1914 53.6413 35.2182L97.0773 21.8736C100.744 20.7463 100.744 15.9005 97.0773 14.7731ZM55.105 39.9815C50.6625 41.3455 46.8771 40.5919 44.8918 39.9815L22.3103 33.0445L20.1023 50.7116C20.1023 56.2161 33.4874 60.6772 49.9992 60.6772C66.5109 60.6772 79.896 56.2161 79.896 50.7116L77.688 33.0429L55.105 39.9815Z" fill="#1E3A8A"/>
</svg>
