<svg width="21" height="21" viewBox="0 0 21 21" fill="none" xmlns="http://www.w3.org/2000/svg">
<path fill-rule="evenodd" clip-rule="evenodd" d="M9.2044 2.26507C8.534 2.26507 7.96373 2.73089 7.80365 3.35874H13.1863C13.0263 2.73089 12.456 2.26507 11.7856 2.26507H9.2044ZM14.7071 3.35873H16.6881C18.7891 3.35873 20.5 5.09037 20.5 7.21694C20.5 7.21694 20.44 8.11719 20.42 9.37089C20.418 9.47009 20.3699 9.56729 20.2909 9.62609C19.8097 9.98149 19.3694 10.2752 19.3294 10.2954C17.6686 11.4093 15.7386 12.1931 13.6826 12.583C13.5485 12.6093 13.4165 12.5395 13.3484 12.42C12.7721 11.4215 11.6956 10.7714 10.495 10.7714C9.3024 10.7714 8.21586 11.4144 7.62256 12.4139C7.55353 12.5314 7.42346 12.5992 7.2904 12.5739C5.25138 12.183 3.32141 11.4002 1.67059 10.3055L0.71011 9.63719C0.63007 9.58659 0.58004 9.49539 0.58004 9.39419C0.55003 8.87769 0.5 7.21694 0.5 7.21694C0.5 5.09037 2.21086 3.35873 4.31191 3.35873H6.28289C6.47299 1.89039 7.7036 0.746094 9.2044 0.746094H11.7856C13.2864 0.746094 14.517 1.89039 14.7071 3.35873ZM20.1598 11.5613L20.1198 11.5816C18.0988 12.9385 15.6676 13.8398 13.1163 14.2145C12.7561 14.2651 12.3959 14.0322 12.2959 13.6677C12.0758 12.8373 11.3654 12.2904 10.515 12.2904H10.505H10.485C9.6346 12.2904 8.9242 12.8373 8.7041 13.6677C8.6041 14.0322 8.24387 14.2651 7.88369 14.2145C5.33242 13.8398 2.9012 12.9385 0.88019 11.5816C0.87019 11.5715 0.77014 11.5107 0.6901 11.5613C0.60005 11.612 0.60005 11.7335 0.60005 11.7335L0.67009 16.898C0.67009 19.0246 2.37094 20.7461 4.47199 20.7461H16.518C18.6191 20.7461 20.3199 19.0246 20.3199 16.898L20.4 11.7335C20.4 11.7335 20.4 11.612 20.3099 11.5613C20.2599 11.531 20.1999 11.5411 20.1598 11.5613ZM11.2454 15.8044C11.2454 16.2297 10.9152 16.5638 10.495 16.5638C10.0848 16.5638 9.7446 16.2297 9.7446 15.8044V14.498C9.7446 14.0828 10.0848 13.7385 10.495 13.7385C10.9152 13.7385 11.2454 14.0828 11.2454 14.498V15.8044Z" fill="#FF5722"/>
</svg>
