<svg width="100" height="100" viewBox="0 0 100 100" fill="none" xmlns="http://www.w3.org/2000/svg">
<path d="M22.3896 81.0175C19.4348 81.0175 16.5463 80.1413 14.0895 78.4997C11.6326 76.8581 9.71775 74.5248 8.58699 71.7949C7.45623 69.065 7.16037 66.0611 7.73683 63.1631C8.31328 60.265 9.73616 57.603 11.8255 55.5136C13.9149 53.4243 16.5769 52.0014 19.475 51.4249C22.373 50.8485 25.3769 51.1443 28.1068 52.2751C30.8367 53.4058 33.17 55.3207 34.8116 57.7775C36.4532 60.2344 37.3294 63.1229 37.3294 66.0777C37.3294 70.04 35.7554 73.84 32.9536 76.6417C30.1519 79.4435 26.3519 81.0175 22.3896 81.0175ZM40.4668 79.0255C42.4249 76.1785 43.6869 72.9114 44.1511 69.4873C44.6153 66.0632 44.2687 62.578 43.1392 59.3124C42.0097 56.0468 40.1289 53.0922 37.6484 50.6867C35.1679 48.2811 32.157 46.4918 28.8583 45.463C25.5597 44.4342 22.0654 44.1947 18.6572 44.7637C15.249 45.3327 12.0221 46.6943 9.23648 48.7388C6.45088 50.7833 4.18448 53.4536 2.6199 56.5345C1.05532 59.6154 0.236307 63.0207 0.228853 66.4761C0.152882 67.587 0.152882 68.7017 0.228853 69.8126C0.330222 70.552 0.479941 71.284 0.677047 72.0038L0.975844 73.0496C1.41586 74.4111 1.98274 75.7282 2.66902 76.9837C3.67638 78.8224 4.95195 80.5008 6.45378 81.9637L7.20077 82.7107L8.84415 84.0552C9.97771 84.9082 11.1959 85.6424 12.4795 86.2464C16.0279 88.0671 20.0028 88.8942 23.983 88.6399C27.9632 88.3857 31.8005 87.0596 35.0884 84.8022L49.6796 99.3935C49.8325 99.5485 50.0147 99.6717 50.2156 99.7557C50.4165 99.8398 50.6321 99.8831 50.8499 99.8831C51.0677 99.8831 51.2833 99.8398 51.4842 99.7557C51.6851 99.6717 51.8673 99.5485 52.0202 99.3935L55.307 96.1565C55.4621 96.0036 55.5852 95.8214 55.6693 95.6205C55.7533 95.4196 55.7966 95.204 55.7966 94.9862C55.7966 94.7684 55.7533 94.5528 55.6693 94.3519C55.5852 94.151 55.4621 93.9688 55.307 93.8159L40.4668 79.0255Z" fill="#1E3A8A"/>
<path d="M49.0322 72.7501C49.7172 70.303 50.0525 67.7714 50.0282 65.2304C49.8842 57.9524 46.8645 51.0275 41.6293 45.9696C36.3942 40.9118 29.3694 38.1324 22.0908 38.2391C18.8282 38.2778 15.5956 38.867 12.5293 39.9821V19.2157C12.5293 18.3969 12.8546 17.6115 13.4336 17.0325C14.0127 16.4535 14.798 16.1282 15.6169 16.1282H96.2421C97.0656 16.1281 97.8561 16.4518 98.4431 17.0294C99.0301 17.6071 99.3664 18.3923 99.3794 19.2157V69.8617C99.3794 70.6938 99.0489 71.4918 98.4605 72.0802C97.8721 72.6685 97.0742 72.9991 96.2421 72.9991L49.0322 72.7501Z" fill="#355CCC"/>
<path fill-rule="evenodd" clip-rule="evenodd" d="M67.8562 16.1286V8.75825H45.7453V16.1286H38.3252V4.4755C38.3383 3.65208 38.6746 2.86682 39.2615 2.28918C39.8485 1.71153 40.639 1.38784 41.4626 1.38794H72.139C72.5444 1.38794 72.9459 1.4678 73.3205 1.62297C73.6951 1.77813 74.0355 2.00556 74.3222 2.29227C74.6089 2.57897 74.8364 2.91934 74.9915 3.29394C75.1467 3.66854 75.2265 4.07004 75.2265 4.4755V16.1286H67.8562Z" fill="#1E3A8A"/>
<path fill-rule="evenodd" clip-rule="evenodd" d="M67.8564 16.1285L75.2268 13.788V16.1285H67.8564Z" fill="#1E3A8A"/>
<path fill-rule="evenodd" clip-rule="evenodd" d="M38.2754 16.1281L45.6955 13.439V16.1281H38.2754Z" fill="#1E3A8A"/>
</svg>
